<svg width="22" height="22" viewBox="0 0 22 22" fill="none" xmlns="http://www.w3.org/2000/svg">
<path d="M8.83325 13.1667L20.7499 1.25" stroke="#FB923C" stroke-width="1.5" stroke-linecap="round" stroke-linejoin="round"/>
<path d="M20.7495 1.25L13.7078 20.75C13.6603 20.8537 13.584 20.9416 13.4879 21.0032C13.3919 21.0649 13.2802 21.0976 13.1661 21.0976C13.052 21.0976 12.9403 21.0649 12.8443 21.0032C12.7483 20.9416 12.672 20.8537 12.6245 20.75L8.8328 13.1667L1.24947 9.375C1.14575 9.32747 1.05785 9.25116 0.996232 9.15514C0.934612 9.05912 0.901855 8.94743 0.901855 8.83333C0.901855 8.71924 0.934612 8.60755 0.996232 8.51153C1.05785 8.41551 1.14575 8.3392 1.24947 8.29167L20.7495 1.25Z" stroke="#FB923C" stroke-width="1.5" stroke-linecap="round" stroke-linejoin="round"/>
</svg>
