<svg width="26" height="26" viewBox="0 0 26 26" fill="none" xmlns="http://www.w3.org/2000/svg">
<path d="M10.2917 14.8958C10.2917 15.9467 11.1043 16.7917 12.1009 16.7917H14.1376C15.0042 16.7917 15.7084 16.055 15.7084 15.1342C15.7084 14.1483 15.2751 13.7908 14.6359 13.5633L11.3751 12.4258C10.7359 12.1983 10.3026 11.8517 10.3026 10.855C10.3026 9.94501 11.0067 9.19751 11.8734 9.19751H13.9101C14.9067 9.19751 15.7193 10.0425 15.7193 11.0933" stroke="#2969FF" stroke-width="1.5" stroke-linecap="round" stroke-linejoin="round"/>
<path d="M13 8.125V17.875" stroke="#2969FF" stroke-width="1.5" stroke-linecap="round" stroke-linejoin="round"/>
<path d="M23.8334 13.0001C23.8334 18.9801 18.9801 23.8334 13.0001 23.8334C7.02008 23.8334 2.16675 18.9801 2.16675 13.0001C2.16675 7.02008 7.02008 2.16675 13.0001 2.16675" stroke="#2969FF" stroke-width="1.5" stroke-linecap="round" stroke-linejoin="round"/>
<path d="M18.4167 3.25V7.58333H22.7501" stroke="#2969FF" stroke-width="1.5" stroke-linecap="round" stroke-linejoin="round"/>
<path d="M23.8334 2.16675L18.4167 7.58341" stroke="#2969FF" stroke-width="1.5" stroke-linecap="round" stroke-linejoin="round"/>
</svg>
