<svg width="20" height="20" viewBox="0 0 20 20" fill="none" xmlns="http://www.w3.org/2000/svg">
<path d="M9.99981 1.66357C13.3747 1.66357 16.1304 4.32586 16.2463 7.70445L16.2498 7.91357V11.3277L17.3998 13.9577C17.4574 14.0893 17.4871 14.2314 17.4871 14.3751C17.4871 14.9504 17.0207 15.4167 16.4454 15.4167L12.4998 15.418C12.4998 16.7987 11.3805 17.918 9.99981 17.918C8.66841 17.918 7.58009 16.8772 7.50405 15.5649L7.49943 15.4161L3.56219 15.4167C3.41941 15.4167 3.27815 15.3874 3.14719 15.3305C2.61952 15.1013 2.37757 14.4877 2.60677 13.9601L3.74981 11.3285V7.91348C3.75031 4.45116 6.54321 1.66357 9.99981 1.66357ZM11.2494 15.4161L8.74981 15.418C8.74981 16.1083 9.30945 16.668 9.99981 16.668C10.6496 16.668 11.1835 16.1722 11.2441 15.5384L11.2494 15.4161ZM9.99981 2.91357C7.23301 2.91357 5.00021 5.14212 4.99981 7.91357V11.5883L3.87982 14.1667H16.1269L14.9998 11.5891L14.9999 7.92429L14.9968 7.73662C14.9042 5.04206 12.7011 2.91357 9.99981 2.91357Z" fill="#2FA2B9"/>
</svg>
