<svg width="22" height="22" viewBox="0 0 22 22" fill="none" xmlns="http://www.w3.org/2000/svg">
<path d="M8.70825 12.6044C8.70825 13.4935 9.39576 14.2085 10.2391 14.2085H11.9624C12.6957 14.2085 13.2916 13.5852 13.2916 12.806C13.2916 11.9719 12.9249 11.6694 12.3841 11.4769L9.62492 10.5144C9.08409 10.3219 8.71743 10.0285 8.71743 9.18521C8.71743 8.41521 9.31324 7.78271 10.0466 7.78271H11.7699C12.6132 7.78271 13.3008 8.49771 13.3008 9.38688" stroke="#2FA2B9" stroke-width="1.5" stroke-linecap="round" stroke-linejoin="round"/>
<path d="M11 6.875V15.125" stroke="#2FA2B9" stroke-width="1.5" stroke-linecap="round" stroke-linejoin="round"/>
<path d="M20.1666 11.0002C20.1666 16.0602 16.0599 20.1668 10.9999 20.1668C5.93992 20.1668 1.83325 16.0602 1.83325 11.0002C1.83325 5.94016 5.93992 1.8335 10.9999 1.8335" stroke="#2FA2B9" stroke-width="1.5" stroke-linecap="round" stroke-linejoin="round"/>
<path d="M15.5833 2.75V6.41667H19.2499" stroke="#2FA2B9" stroke-width="1.5" stroke-linecap="round" stroke-linejoin="round"/>
<path d="M20.1666 1.8335L15.5833 6.41683" stroke="#2FA2B9" stroke-width="1.5" stroke-linecap="round" stroke-linejoin="round"/>
</svg>
