<svg width="18" height="18" viewBox="0 0 18 18" fill="none" xmlns="http://www.w3.org/2000/svg">
<path d="M6.49999 8.16667C8.34094 8.16667 9.83332 6.67428 9.83332 4.83333C9.83332 2.99238 8.34094 1.5 6.49999 1.5C4.65904 1.5 3.16666 2.99238 3.16666 4.83333C3.16666 6.67428 4.65904 8.16667 6.49999 8.16667Z" stroke="#AB92F0" stroke-width="1.5" stroke-linecap="round" stroke-linejoin="round"/>
<path d="M1.5 16.5V14.8333C1.5 13.9493 1.85119 13.1014 2.47631 12.4763C3.10143 11.8512 3.94928 11.5 4.83333 11.5H8.16667C9.05072 11.5 9.89857 11.8512 10.5237 12.4763C11.1488 13.1014 11.5 13.9493 11.5 14.8333V16.5" stroke="#AB92F0" stroke-width="1.5" stroke-linecap="round" stroke-linejoin="round"/>
<path d="M12.3333 1.6084C13.0504 1.79198 13.6859 2.20898 14.1397 2.79366C14.5935 3.37833 14.8399 4.09742 14.8399 4.83757C14.8399 5.57771 14.5935 6.2968 14.1397 6.88147C13.6859 7.46615 13.0504 7.88315 12.3333 8.06673" stroke="#AB92F0" stroke-width="1.5" stroke-linecap="round" stroke-linejoin="round"/>
<path d="M16.5 16.5V14.8333C16.4958 14.0976 16.2483 13.384 15.7961 12.8037C15.3439 12.2233 14.7124 11.8089 14 11.625" stroke="#AB92F0" stroke-width="1.5" stroke-linecap="round" stroke-linejoin="round"/>
</svg>
