<svg width="24" height="24" viewBox="0 0 24 24" fill="none" xmlns="http://www.w3.org/2000/svg">
<path d="M10 13.9999C10.3259 14.3325 10.7148 14.5967 11.1441 14.7771C11.5734 14.9575 12.0344 15.0504 12.5 15.0504C12.9656 15.0504 13.4266 14.9575 13.8559 14.7771C14.2852 14.5967 14.6741 14.3325 15 13.9999L19 9.99989C19.663 9.33685 20.0355 8.43757 20.0355 7.49989C20.0355 6.56221 19.663 5.66293 19 4.99989C18.337 4.33685 17.4377 3.96436 16.5 3.96436C15.5623 3.96436 14.663 4.33685 14 4.99989L13.5 5.49989" stroke="#6B7280" stroke-width="1.5" stroke-linecap="round" stroke-linejoin="round"/>
<path d="M13.9999 9.99973C13.674 9.66713 13.285 9.4029 12.8558 9.22252C12.4265 9.04213 11.9655 8.94922 11.4999 8.94922C11.0343 8.94922 10.5733 9.04213 10.144 9.22252C9.71474 9.4029 9.32577 9.66713 8.99989 9.99973L4.99989 13.9997C4.33685 14.6628 3.96436 15.562 3.96436 16.4997C3.96436 17.4374 4.33685 18.3367 4.99989 18.9997C5.66293 19.6628 6.56221 20.0353 7.49989 20.0353C8.43757 20.0353 9.33685 19.6628 9.99989 18.9997L10.4999 18.4997" stroke="#6B7280" stroke-width="1.5" stroke-linecap="round" stroke-linejoin="round"/>
</svg>
