<svg width="24" height="24" viewBox="0 0 24 24" fill="none" xmlns="http://www.w3.org/2000/svg">
<path d="M12 22C17.5228 22 22 17.5228 22 12C22 6.47715 17.5228 2 12 2C6.47715 2 2 6.47715 2 12C2 17.5228 6.47715 22 12 22Z" stroke="#5FA8EE" stroke-width="1.5" stroke-linecap="round" stroke-linejoin="round"/>
<path d="M8.00986 14.5104C8.18986 14.8104 8.40985 15.0905 8.65985 15.3405C10.4999 17.1805 13.4898 17.1805 15.3398 15.3405C16.0898 14.5905 16.5199 13.6404 16.6599 12.6704" stroke="#5FA8EE" stroke-width="1.5" stroke-linecap="round" stroke-linejoin="round"/>
<path d="M7.33984 11.3303C7.47984 10.3503 7.90985 9.41027 8.65985 8.66027C10.4999 6.82027 13.4898 6.82027 15.3398 8.66027C15.5998 8.92027 15.8098 9.20029 15.9898 9.49029" stroke="#5FA8EE" stroke-width="1.5" stroke-linecap="round" stroke-linejoin="round"/>
<path d="M7.82031 17.1802V14.5103H10.4903" stroke="#5FA8EE" stroke-width="1.5" stroke-linecap="round" stroke-linejoin="round"/>
<path d="M16.1798 6.82031V9.4903H13.5099" stroke="#5FA8EE" stroke-width="1.5" stroke-linecap="round" stroke-linejoin="round"/>
</svg>
